<svg width="31" height="29" viewBox="0 0 31 29" fill="none" xmlns="http://www.w3.org/2000/svg">
<path d="M5 7C5 6.39062 5.46875 5.875 6.125 5.875H24.875C25.4844 5.875 26 6.39062 26 7C26 7.65625 25.4844 8.125 24.875 8.125H6.125C5.46875 8.125 5 7.65625 5 7ZM5 14.5C5 13.8906 5.46875 13.375 6.125 13.375H24.875C25.4844 13.375 26 13.8906 26 14.5C26 15.1562 25.4844 15.625 24.875 15.625H6.125C5.46875 15.625 5 15.1562 5 14.5ZM26 22C26 22.6562 25.4844 23.125 24.875 23.125H6.125C5.46875 23.125 5 22.6562 5 22C5 21.3906 5.46875 20.875 6.125 20.875H24.875C25.4844 20.875 26 21.3906 26 22Z" fill="black"/>
</svg>
