<svg width="1360" height="197" viewBox="0 0 1360 197" fill="none" xmlns="http://www.w3.org/2000/svg">
<mask id="path-1-inside-1_5573_7988" fill="white">
<path d="M1310.41 180.986C1296.44 180.986 1284.29 177.679 1273.96 171.065C1263.63 164.452 1256.6 155.55 1252.88 144.348L1278.5 132.209C1281.75 139.057 1286.18 144.431 1291.78 148.316C1297.36 152.202 1303.58 154.145 1310.41 154.145C1315.38 154.145 1319.19 153.139 1321.83 151.114C1324.47 149.088 1325.79 146.291 1325.79 142.708C1325.79 140.834 1325.32 139.25 1324.38 137.927C1323.45 136.604 1322.06 135.406 1320.19 134.317C1318.32 133.228 1316 132.291 1313.2 131.52L1291.55 125.457C1281.14 122.508 1273.15 117.713 1267.55 111.099C1261.97 104.486 1259.16 96.673 1259.16 87.6478C1259.16 79.7111 1261.18 72.7941 1265.21 66.8829C1269.25 60.9718 1274.92 56.342 1282.21 52.9938C1289.51 49.6455 1297.89 47.9782 1307.36 47.9782C1319.78 47.9782 1330.68 50.8994 1340.09 56.7278C1349.48 62.5563 1356.12 70.7686 1360 81.3508L1334.15 93.49C1332.29 88.1989 1328.91 83.955 1324.01 80.7721C1319.12 77.5891 1313.56 75.9908 1307.36 75.9908C1302.85 75.9908 1299.33 76.9278 1296.76 78.7879C1294.2 80.6618 1292.92 83.2247 1292.92 86.4903C1292.92 88.1989 1293.39 89.756 1294.32 91.1614C1295.26 92.5668 1296.77 93.8069 1298.86 94.8955C1300.95 95.984 1303.55 96.9899 1306.66 97.9268L1326.93 103.99C1337.49 107.104 1345.56 111.802 1351.16 118.113C1356.75 124.424 1359.55 132.154 1359.55 141.33C1359.55 149.267 1357.48 156.184 1353.37 162.095C1349.26 168.006 1343.55 172.636 1336.25 175.984C1328.95 179.333 1320.33 181 1310.4 181L1310.41 180.986Z"/>
<path d="M570.494 179.829C559.617 179.829 549.413 177.845 539.87 173.876C530.327 169.908 522.09 164.272 515.186 156.956C508.269 149.639 503.113 141.014 499.702 131.051L529.281 117.741C533.627 127.235 539.65 134.703 547.337 140.145C555.024 145.588 563.522 148.316 572.846 148.316C577.81 148.316 582.087 147.545 585.662 145.988C589.237 144.431 592.029 142.295 594.05 139.567C596.072 136.852 597.076 133.614 597.076 129.88C597.076 125.829 595.824 122.371 593.349 119.491C590.86 116.611 586.982 114.324 581.702 112.601L547.695 101.399C533.874 96.8934 523.465 90.4724 516.479 82.15C509.493 73.8275 506 63.824 506 52.167C506 41.9017 508.517 32.8765 513.564 25.0914C518.61 17.3201 525.679 11.2436 534.755 6.88946C543.844 2.53532 554.281 0.358252 566.08 0.358252C576.476 0.358252 586.116 2.14951 594.958 5.73203C603.814 9.31456 611.46 14.3714 617.895 20.9026C624.331 27.4338 629.185 35.3016 632.458 44.4784L603.112 57.775C599.853 49.6868 594.958 43.3485 588.44 38.7601C581.922 34.1717 574.468 31.8707 566.08 31.8707C561.267 31.8707 556.99 32.6561 553.264 34.1993C549.537 35.7563 546.663 37.9747 544.642 40.8545C542.62 43.7343 541.616 47.0413 541.616 50.7753C541.616 54.8264 542.937 58.3538 545.577 61.3989C548.217 64.4303 552.177 66.8002 557.458 68.5226L590.764 79.2564C604.735 83.7759 615.186 90.0729 622.089 98.1611C628.992 106.249 632.458 116.129 632.458 127.8C632.458 137.913 629.818 146.897 624.537 154.751C619.256 162.605 611.996 168.751 602.755 173.187C593.514 177.624 582.76 179.843 570.494 179.843V179.829Z"/>
<path d="M164.156 177.238V0.564936H199.098V177.238H164.156Z"/>
<path d="M224.717 177.238V99.1256L259.659 78.7466V177.238H224.717Z"/>
<path d="M412.918 79.7938C407.17 69.7627 399.414 61.7847 389.623 55.8736C379.846 49.9624 368.9 46.9999 356.785 46.9999C347.461 46.9999 339.197 48.7498 331.977 52.2497C327.467 54.4405 323.548 57.1826 320.22 60.5033V0.564936H285.278V177.238H317.882V165.085C321.87 169.384 326.724 172.788 332.445 175.254C339.815 178.437 347.86 180.035 356.551 180.035C368.968 180.035 380.079 177.087 389.857 171.162C399.634 165.251 407.362 157.245 413.028 147.118C418.693 137.004 421.526 125.802 421.526 113.511C421.526 101.22 418.652 89.8248 412.904 79.78L412.918 79.7938ZM381.235 131.727C378.443 137.018 374.551 141.138 369.587 144.1C364.609 147.062 358.875 148.537 352.357 148.537C345.839 148.537 340.599 147.062 335.704 144.1C330.808 141.151 326.999 137.018 324.29 131.727C321.567 126.435 320.22 120.373 320.22 113.525C320.22 106.676 321.581 100.614 324.29 95.3226C326.999 90.0315 330.808 85.9116 335.704 82.9492C340.599 80.0005 346.141 78.5123 352.357 78.5123C358.875 78.5123 364.623 80.028 369.587 83.0594C374.551 86.0907 378.443 90.2106 381.235 95.4329C384.026 100.655 385.429 106.676 385.429 113.525C385.429 120.373 384.026 126.435 381.235 131.727Z"/>
<path d="M442.029 177.238V49.8108H476.971V177.238H442.029Z"/>
<path d="M2 113.525C2 125.815 4.83278 137.018 10.4983 147.131C16.1639 157.245 23.8921 165.264 33.6693 171.176C43.4465 177.087 54.5576 180.049 66.9751 180.049C75.6659 180.049 83.7105 178.451 91.0812 175.268C96.8018 172.802 101.642 169.398 105.644 165.099V177.252H138.248V48.8739H103.306V60.5033C99.9783 57.1963 96.0592 54.4405 91.5487 52.2497C84.3293 48.7498 76.0647 46.9999 66.7413 46.9999C54.6264 46.9999 43.6803 49.9624 33.9031 55.8736C24.1259 61.7847 16.3564 69.7627 10.6083 79.7938C4.87403 89.8386 2 101.068 2 113.525ZM38.0973 113.525C38.0973 106.676 39.4999 100.655 42.2914 95.4329C45.083 90.2244 48.9746 86.0907 53.9388 83.0594C58.9168 80.028 64.6511 78.5123 71.1693 78.5123C77.6874 78.5123 82.9267 80.0005 87.8221 82.9492C92.7176 85.9116 96.5267 90.0315 99.2357 95.3226C101.959 100.614 103.306 106.676 103.306 113.525C103.306 120.373 101.945 126.435 99.2357 131.727C96.5267 137.018 92.7176 141.138 87.8221 144.1C82.9267 147.062 77.3849 148.537 71.1693 148.537C64.6511 148.537 58.9031 147.062 53.9388 144.1C48.9746 141.151 45.083 137.018 42.2914 131.727C39.4999 126.435 38.0973 120.373 38.0973 113.525Z"/>
<path d="M668.019 20.3101H702.961V49.2459H732.774V79.5871H702.961V128.365C702.961 132.719 703.731 136.342 705.285 139.222C706.839 142.102 709.245 144.238 712.504 145.643C715.763 147.049 719.806 147.738 724.619 147.738C725.706 147.738 726.943 147.655 728.346 147.503C729.749 147.352 731.22 147.187 732.774 147.035V176.673C730.45 176.977 727.796 177.293 724.853 177.61C721.896 177.914 719.105 178.079 716.465 178.079C701.091 178.079 689.168 173.918 680.711 165.595C672.24 157.273 668.019 145.643 668.019 130.707V79.6009H646.594V49.2597L668.019 49.1219V20.3101Z"/>
<path d="M832.224 49.2459V123.693C832.224 128.516 831.247 132.76 829.308 136.411C827.369 140.063 824.647 142.915 821.154 144.927C817.661 146.952 813.59 147.958 808.929 147.958C804.267 147.958 800.389 146.952 796.814 144.927C793.238 142.901 790.488 140.063 788.549 136.411C786.61 132.76 785.634 128.516 785.634 123.693V49.2459H750.692V126.491C750.692 137.073 752.562 146.332 756.289 154.269C760.015 162.206 765.488 168.392 772.708 172.829C779.927 177.266 788.659 179.484 798.904 179.484C807.76 179.484 815.474 177.652 822.075 174C827.438 171.024 831.577 166.711 834.534 161.117V176.687H867.138V49.2459H832.196H832.224Z"/>
<path d="M988.975 0V59.9383C985.647 56.6314 981.728 53.8756 977.218 51.6848C969.998 48.1849 961.734 46.435 952.41 46.435C940.295 46.435 929.349 49.3975 919.572 55.3086C909.795 61.2198 902.025 69.1978 896.277 79.2288C890.529 89.2599 887.655 100.504 887.655 112.96C887.655 125.416 890.488 136.453 896.154 146.566C901.819 156.68 909.547 164.7 919.325 170.611C929.102 176.522 940.213 179.484 952.63 179.484C961.321 179.484 969.407 177.886 976.86 174.703C982.594 172.25 987.407 168.888 991.299 164.631V176.687H1023.9V0H988.961H988.975ZM984.905 131.162C982.182 136.453 978.414 140.573 973.615 143.535C968.802 146.498 963.205 147.972 956.838 147.972C950.471 147.972 944.765 146.498 939.718 143.535C934.671 140.586 930.752 136.453 927.96 131.162C925.169 125.871 923.766 119.808 923.766 112.96C923.766 106.112 925.169 100.09 927.96 94.8679C930.752 89.6595 934.671 85.5258 939.718 82.4944C944.765 79.4631 950.471 77.9474 956.838 77.9474C963.205 77.9474 968.788 79.4355 973.615 82.3842C978.428 85.3467 982.196 89.4666 984.905 94.7577C987.614 100.049 988.975 106.112 988.975 112.96C988.975 119.808 987.614 125.871 984.905 131.162Z"/>
<path d="M1049.54 176.673V49.2459H1084.48V176.673H1049.54Z"/>
<path d="M1173.22 179.471C1160.63 179.471 1149.18 176.591 1138.86 170.831C1128.54 165.072 1120.3 157.176 1114.18 147.145C1108.05 137.114 1104.98 125.719 1104.98 112.96C1104.98 100.2 1108.05 88.6123 1114.18 78.6501C1120.31 68.688 1128.54 60.834 1138.86 55.0744C1149.19 49.3148 1160.65 46.435 1173.22 46.435C1185.78 46.435 1197.21 49.3148 1207.46 55.0744C1217.7 60.834 1225.9 68.688 1232.03 78.6501C1238.16 88.6123 1241.23 100.049 1241.23 112.96C1241.23 125.871 1238.16 137.114 1232.03 147.145C1225.9 157.176 1217.7 165.085 1207.46 170.831C1197.21 176.591 1185.8 179.471 1173.22 179.471ZM1173.22 147.972C1179.58 147.972 1185.12 146.498 1189.87 143.535C1194.6 140.586 1198.33 136.453 1201.05 131.162C1203.76 125.871 1205.12 119.808 1205.12 112.96C1205.12 106.112 1203.76 100.09 1201.05 94.8679C1198.33 89.6595 1194.6 85.5258 1189.87 82.4944C1185.12 79.4631 1179.58 77.9474 1173.22 77.9474C1166.85 77.9474 1161.25 79.4631 1156.44 82.4944C1151.63 85.5258 1147.86 89.6457 1145.15 94.8679C1142.43 100.09 1141.08 106.112 1141.08 112.96C1141.08 119.808 1142.44 125.871 1145.15 131.162C1147.86 136.453 1151.63 140.573 1156.44 143.535C1161.25 146.498 1166.83 147.972 1173.22 147.972Z"/>
</mask>
<path d="M1310.41 180.986C1296.44 180.986 1284.29 177.679 1273.96 171.065C1263.63 164.452 1256.6 155.55 1252.88 144.348L1278.5 132.209C1281.75 139.057 1286.18 144.431 1291.78 148.316C1297.36 152.202 1303.58 154.145 1310.41 154.145C1315.38 154.145 1319.19 153.139 1321.83 151.114C1324.47 149.088 1325.79 146.291 1325.79 142.708C1325.79 140.834 1325.32 139.25 1324.38 137.927C1323.45 136.604 1322.06 135.406 1320.19 134.317C1318.32 133.228 1316 132.291 1313.2 131.52L1291.55 125.457C1281.14 122.508 1273.15 117.713 1267.55 111.099C1261.97 104.486 1259.16 96.673 1259.16 87.6478C1259.16 79.7111 1261.18 72.7941 1265.21 66.8829C1269.25 60.9718 1274.92 56.342 1282.21 52.9938C1289.51 49.6455 1297.89 47.9782 1307.36 47.9782C1319.78 47.9782 1330.68 50.8994 1340.09 56.7278C1349.48 62.5563 1356.12 70.7686 1360 81.3508L1334.15 93.49C1332.29 88.1989 1328.91 83.955 1324.01 80.7721C1319.12 77.5891 1313.56 75.9908 1307.36 75.9908C1302.85 75.9908 1299.33 76.9278 1296.76 78.7879C1294.2 80.6618 1292.92 83.2247 1292.92 86.4903C1292.92 88.1989 1293.39 89.756 1294.32 91.1614C1295.26 92.5668 1296.77 93.8069 1298.86 94.8955C1300.95 95.984 1303.55 96.9899 1306.66 97.9268L1326.93 103.99C1337.49 107.104 1345.56 111.802 1351.16 118.113C1356.75 124.424 1359.55 132.154 1359.55 141.33C1359.55 149.267 1357.48 156.184 1353.37 162.095C1349.26 168.006 1343.55 172.636 1336.25 175.984C1328.95 179.333 1320.33 181 1310.4 181L1310.41 180.986Z" stroke="black" stroke-width="2" mask="url(#path-1-inside-1_5573_7988)"/>
<path d="M570.494 179.829C559.617 179.829 549.413 177.845 539.87 173.876C530.327 169.908 522.09 164.272 515.186 156.956C508.269 149.639 503.113 141.014 499.702 131.051L529.281 117.741C533.627 127.235 539.65 134.703 547.337 140.145C555.024 145.588 563.522 148.316 572.846 148.316C577.81 148.316 582.087 147.545 585.662 145.988C589.237 144.431 592.029 142.295 594.05 139.567C596.072 136.852 597.076 133.614 597.076 129.88C597.076 125.829 595.824 122.371 593.349 119.491C590.86 116.611 586.982 114.324 581.702 112.601L547.695 101.399C533.874 96.8934 523.465 90.4724 516.479 82.15C509.493 73.8275 506 63.824 506 52.167C506 41.9017 508.517 32.8765 513.564 25.0914C518.61 17.3201 525.679 11.2436 534.755 6.88946C543.844 2.53532 554.281 0.358252 566.08 0.358252C576.476 0.358252 586.116 2.14951 594.958 5.73203C603.814 9.31456 611.46 14.3714 617.895 20.9026C624.331 27.4338 629.185 35.3016 632.458 44.4784L603.112 57.775C599.853 49.6868 594.958 43.3485 588.44 38.7601C581.922 34.1717 574.468 31.8707 566.08 31.8707C561.267 31.8707 556.99 32.6561 553.264 34.1993C549.537 35.7563 546.663 37.9747 544.642 40.8545C542.62 43.7343 541.616 47.0413 541.616 50.7753C541.616 54.8264 542.937 58.3538 545.577 61.3989C548.217 64.4303 552.177 66.8002 557.458 68.5226L590.764 79.2564C604.735 83.7759 615.186 90.0729 622.089 98.1611C628.992 106.249 632.458 116.129 632.458 127.8C632.458 137.913 629.818 146.897 624.537 154.751C619.256 162.605 611.996 168.751 602.755 173.187C593.514 177.624 582.76 179.843 570.494 179.843V179.829Z" stroke="black" stroke-width="2" mask="url(#path-1-inside-1_5573_7988)"/>
<path d="M164.156 177.238V0.564936H199.098V177.238H164.156Z" stroke="black" stroke-width="2" mask="url(#path-1-inside-1_5573_7988)"/>
<path d="M224.717 177.238V99.1256L259.659 78.7466V177.238H224.717Z" stroke="black" stroke-width="2" mask="url(#path-1-inside-1_5573_7988)"/>
<path d="M412.918 79.7938C407.17 69.7627 399.414 61.7847 389.623 55.8736C379.846 49.9624 368.9 46.9999 356.785 46.9999C347.461 46.9999 339.197 48.7498 331.977 52.2497C327.467 54.4405 323.548 57.1826 320.22 60.5033V0.564936H285.278V177.238H317.882V165.085C321.87 169.384 326.724 172.788 332.445 175.254C339.815 178.437 347.86 180.035 356.551 180.035C368.968 180.035 380.079 177.087 389.857 171.162C399.634 165.251 407.362 157.245 413.028 147.118C418.693 137.004 421.526 125.802 421.526 113.511C421.526 101.22 418.652 89.8248 412.904 79.78L412.918 79.7938ZM381.235 131.727C378.443 137.018 374.551 141.138 369.587 144.1C364.609 147.062 358.875 148.537 352.357 148.537C345.839 148.537 340.599 147.062 335.704 144.1C330.808 141.151 326.999 137.018 324.29 131.727C321.567 126.435 320.22 120.373 320.22 113.525C320.22 106.676 321.581 100.614 324.29 95.3226C326.999 90.0315 330.808 85.9116 335.704 82.9492C340.599 80.0005 346.141 78.5123 352.357 78.5123C358.875 78.5123 364.623 80.028 369.587 83.0594C374.551 86.0907 378.443 90.2106 381.235 95.4329C384.026 100.655 385.429 106.676 385.429 113.525C385.429 120.373 384.026 126.435 381.235 131.727Z" stroke="black" stroke-width="2" mask="url(#path-1-inside-1_5573_7988)"/>
<path d="M442.029 177.238V49.8108H476.971V177.238H442.029Z" stroke="black" stroke-width="2" mask="url(#path-1-inside-1_5573_7988)"/>
<path d="M2 113.525C2 125.815 4.83278 137.018 10.4983 147.131C16.1639 157.245 23.8921 165.264 33.6693 171.176C43.4465 177.087 54.5576 180.049 66.9751 180.049C75.6659 180.049 83.7105 178.451 91.0812 175.268C96.8018 172.802 101.642 169.398 105.644 165.099V177.252H138.248V48.8739H103.306V60.5033C99.9783 57.1963 96.0592 54.4405 91.5487 52.2497C84.3293 48.7498 76.0647 46.9999 66.7413 46.9999C54.6264 46.9999 43.6803 49.9624 33.9031 55.8736C24.1259 61.7847 16.3564 69.7627 10.6083 79.7938C4.87403 89.8386 2 101.068 2 113.525ZM38.0973 113.525C38.0973 106.676 39.4999 100.655 42.2914 95.4329C45.083 90.2244 48.9746 86.0907 53.9388 83.0594C58.9168 80.028 64.6511 78.5123 71.1693 78.5123C77.6874 78.5123 82.9267 80.0005 87.8221 82.9492C92.7176 85.9116 96.5267 90.0315 99.2357 95.3226C101.959 100.614 103.306 106.676 103.306 113.525C103.306 120.373 101.945 126.435 99.2357 131.727C96.5267 137.018 92.7176 141.138 87.8221 144.1C82.9267 147.062 77.3849 148.537 71.1693 148.537C64.6511 148.537 58.9031 147.062 53.9388 144.1C48.9746 141.151 45.083 137.018 42.2914 131.727C39.4999 126.435 38.0973 120.373 38.0973 113.525Z" stroke="black" stroke-width="2" mask="url(#path-1-inside-1_5573_7988)"/>
<path d="M668.019 20.3101H702.961V49.2459H732.774V79.5871H702.961V128.365C702.961 132.719 703.731 136.342 705.285 139.222C706.839 142.102 709.245 144.238 712.504 145.643C715.763 147.049 719.806 147.738 724.619 147.738C725.706 147.738 726.943 147.655 728.346 147.503C729.749 147.352 731.22 147.187 732.774 147.035V176.673C730.45 176.977 727.796 177.293 724.853 177.61C721.896 177.914 719.105 178.079 716.465 178.079C701.091 178.079 689.168 173.918 680.711 165.595C672.24 157.273 668.019 145.643 668.019 130.707V79.6009H646.594V49.2597L668.019 49.1219V20.3101Z" stroke="black" stroke-width="2" mask="url(#path-1-inside-1_5573_7988)"/>
<path d="M832.224 49.2459V123.693C832.224 128.516 831.247 132.76 829.308 136.411C827.369 140.063 824.647 142.915 821.154 144.927C817.661 146.952 813.59 147.958 808.929 147.958C804.267 147.958 800.389 146.952 796.814 144.927C793.238 142.901 790.488 140.063 788.549 136.411C786.61 132.76 785.634 128.516 785.634 123.693V49.2459H750.692V126.491C750.692 137.073 752.562 146.332 756.289 154.269C760.015 162.206 765.488 168.392 772.708 172.829C779.927 177.266 788.659 179.484 798.904 179.484C807.76 179.484 815.474 177.652 822.075 174C827.438 171.024 831.577 166.711 834.534 161.117V176.687H867.138V49.2459H832.196H832.224Z" stroke="black" stroke-width="2" mask="url(#path-1-inside-1_5573_7988)"/>
<path d="M988.975 0V59.9383C985.647 56.6314 981.728 53.8756 977.218 51.6848C969.998 48.1849 961.734 46.435 952.41 46.435C940.295 46.435 929.349 49.3975 919.572 55.3086C909.795 61.2198 902.025 69.1978 896.277 79.2288C890.529 89.2599 887.655 100.504 887.655 112.96C887.655 125.416 890.488 136.453 896.154 146.566C901.819 156.68 909.547 164.7 919.325 170.611C929.102 176.522 940.213 179.484 952.63 179.484C961.321 179.484 969.407 177.886 976.86 174.703C982.594 172.25 987.407 168.888 991.299 164.631V176.687H1023.9V0H988.961H988.975ZM984.905 131.162C982.182 136.453 978.414 140.573 973.615 143.535C968.802 146.498 963.205 147.972 956.838 147.972C950.471 147.972 944.765 146.498 939.718 143.535C934.671 140.586 930.752 136.453 927.96 131.162C925.169 125.871 923.766 119.808 923.766 112.96C923.766 106.112 925.169 100.09 927.96 94.8679C930.752 89.6595 934.671 85.5258 939.718 82.4944C944.765 79.4631 950.471 77.9474 956.838 77.9474C963.205 77.9474 968.788 79.4355 973.615 82.3842C978.428 85.3467 982.196 89.4666 984.905 94.7577C987.614 100.049 988.975 106.112 988.975 112.96C988.975 119.808 987.614 125.871 984.905 131.162Z" stroke="black" stroke-width="2" mask="url(#path-1-inside-1_5573_7988)"/>
<path d="M1049.54 176.673V49.2459H1084.48V176.673H1049.54Z" stroke="black" stroke-width="2" mask="url(#path-1-inside-1_5573_7988)"/>
<path d="M1173.22 179.471C1160.63 179.471 1149.18 176.591 1138.86 170.831C1128.54 165.072 1120.3 157.176 1114.18 147.145C1108.05 137.114 1104.98 125.719 1104.98 112.96C1104.98 100.2 1108.05 88.6123 1114.18 78.6501C1120.31 68.688 1128.54 60.834 1138.86 55.0744C1149.19 49.3148 1160.65 46.435 1173.22 46.435C1185.78 46.435 1197.21 49.3148 1207.46 55.0744C1217.7 60.834 1225.9 68.688 1232.03 78.6501C1238.16 88.6123 1241.23 100.049 1241.23 112.96C1241.23 125.871 1238.16 137.114 1232.03 147.145C1225.9 157.176 1217.7 165.085 1207.46 170.831C1197.21 176.591 1185.8 179.471 1173.22 179.471ZM1173.22 147.972C1179.58 147.972 1185.12 146.498 1189.87 143.535C1194.6 140.586 1198.33 136.453 1201.05 131.162C1203.76 125.871 1205.12 119.808 1205.12 112.96C1205.12 106.112 1203.76 100.09 1201.05 94.8679C1198.33 89.6595 1194.6 85.5258 1189.87 82.4944C1185.12 79.4631 1179.58 77.9474 1173.22 77.9474C1166.85 77.9474 1161.25 79.4631 1156.44 82.4944C1151.63 85.5258 1147.86 89.6457 1145.15 94.8679C1142.43 100.09 1141.08 106.112 1141.08 112.96C1141.08 119.808 1142.44 125.871 1145.15 131.162C1147.86 136.453 1151.63 140.573 1156.44 143.535C1161.25 146.498 1166.83 147.972 1173.22 147.972Z" stroke="black" stroke-width="2" mask="url(#path-1-inside-1_5573_7988)"/>
<path d="M258.756 48.6943L225.464 67.9443V29.4297L258.756 48.6943Z" stroke="#FF0066"/>
</svg>
