<svg width="94" height="35" viewBox="0 0 94 35" fill="none" xmlns="http://www.w3.org/2000/svg">
<g clip-path="url(#clip0_5566_2659)">
<path d="M32.2503 34.4545V0H39.092V34.4545H32.2503Z" fill="white"/>
<path d="M44.1082 34.4547V19.2213L50.9499 15.2471V34.4547H44.1082Z" fill="white"/>
<path d="M80.9582 15.4511C79.8327 13.4948 78.3141 11.939 76.397 10.7862C74.4827 9.6334 72.3394 9.05566 69.9673 9.05566C68.1417 9.05566 66.5235 9.39693 65.11 10.0795C64.2268 10.5067 63.4594 11.0415 62.8078 11.6891V0H55.9661V34.4545H62.3501V32.0845C63.131 32.9228 64.0814 33.5866 65.2015 34.0676C66.6447 34.6883 68.2198 35 69.9215 35C72.3529 35 74.5284 34.4249 76.4428 33.2695C78.3572 32.1167 79.8704 30.5555 80.9797 28.5804C82.0891 26.6081 82.6437 24.4234 82.6437 22.0265C82.6437 19.6296 82.081 17.4073 80.9555 15.4484L80.9582 15.4511ZM74.7546 25.5789C74.208 26.6107 73.446 27.4142 72.474 27.9919C71.4993 28.5697 70.3765 28.8572 69.1003 28.8572C67.824 28.8572 66.7982 28.5697 65.8396 27.9919C64.8811 27.4169 64.1353 26.6107 63.6048 25.5789C63.0717 24.547 62.8078 23.3647 62.8078 22.0292C62.8078 20.6937 63.0744 19.5113 63.6048 18.4795C64.1353 17.4476 64.8811 16.6441 65.8396 16.0664C66.7982 15.4914 67.8833 15.2012 69.1003 15.2012C70.3765 15.2012 71.502 15.4967 72.474 16.0879C73.446 16.6791 74.208 17.4825 74.7546 18.501C75.3012 19.5194 75.5758 20.6937 75.5758 22.0292C75.5758 23.3647 75.3012 24.547 74.7546 25.5789Z" fill="white"/>
<path d="M86.6583 34.4542V9.60352H93.5V34.4542H86.6583Z" fill="white"/>
<path d="M0.5 22.0292C0.5 24.4261 1.05466 26.6108 2.16398 28.5831C3.27331 30.5555 4.78651 32.1194 6.7009 33.2722C8.61529 34.425 10.7909 35.0027 13.2222 35.0027C14.9239 35.0027 16.499 34.691 17.9422 34.0702C19.0623 33.5893 20.0101 32.9255 20.7936 32.0871V34.4572H27.1776V9.42112H20.3359V11.6891C19.6843 11.0441 18.9169 10.5067 18.0338 10.0795C16.6202 9.39693 15.002 9.05566 13.1764 9.05566C10.8043 9.05566 8.66106 9.6334 6.74667 10.7862C4.83228 11.939 3.311 13.4948 2.18552 15.4511C1.06274 17.41 0.5 19.6027 0.5 22.0292ZM7.56789 22.0292C7.56789 20.6937 7.84253 19.5194 8.38911 18.501C8.9357 17.4852 9.69768 16.6791 10.6697 16.0879C11.6444 15.4967 12.7672 15.2012 14.0434 15.2012C15.3197 15.2012 16.3455 15.4914 17.3041 16.0664C18.2626 16.6441 19.0085 17.4476 19.5389 18.4795C20.072 19.5113 20.3359 20.6937 20.3359 22.0292C20.3359 23.3647 20.0693 24.547 19.5389 25.5789C19.0085 26.6108 18.2626 27.4142 17.3041 27.9919C16.3455 28.5697 15.2605 28.8572 14.0434 28.8572C12.7672 28.8572 11.6417 28.5697 10.6697 27.9919C9.69768 27.4169 8.9357 26.6108 8.38911 25.5789C7.84253 24.547 7.56789 23.3647 7.56789 22.0292Z" fill="white"/>
<path d="M50.9688 9.38612L44.1567 5.46289V13.312L50.9688 9.38612Z" fill="white"/>
</g>
<defs>
<clipPath id="clip0_5566_2659">
<rect width="93" height="35" fill="white" transform="translate(0.5)"/>
</clipPath>
</defs>
</svg>
