<svg width="40" height="39" viewBox="0 0 40 39" fill="none" xmlns="http://www.w3.org/2000/svg">
<path d="M6.17188 8.1875L34.7188 30.6875C35 30.9219 35.0938 31.4375 34.8125 31.7188C34.5781 32.0469 34.1094 32.1406 33.7812 31.8594L5.28125 9.35938C4.95312 9.125 4.85938 8.60938 5.14062 8.32812C5.375 8 5.89062 7.90625 6.17188 8.1875ZM32 20C32 21.7344 31.5312 23.2812 30.6875 24.6406L29.5156 23.7031C30.125 22.625 30.5 21.3594 30.5 20C30.5 17.7031 29.4219 15.5938 27.7344 14.2344C27.4531 13.9531 27.4062 13.4844 27.6406 13.1562C27.9219 12.875 28.3906 12.8281 28.7188 13.0625C30.6875 14.75 32 17.2344 32 20ZM27.125 21.8281L25.8594 20.8438C25.9531 20.5625 26 20.3281 26 20C26 19.0625 25.5312 18.1719 24.7812 17.6094C24.4531 17.375 24.3594 16.9062 24.6406 16.5781C24.875 16.25 25.3438 16.1562 25.6719 16.4375C26.75 17.2344 27.5 18.5469 27.5 20C27.5 20.6562 27.3594 21.2656 27.125 21.8281ZM21.5 10.9062V17.375L20 16.2031V11.1406L16.9531 13.8125L15.7812 12.875L19.1562 9.875C19.3906 9.64062 19.7188 9.5 20.0938 9.5C20.8438 9.5 21.5 10.1562 21.5 10.9062ZM9.125 17C8.46875 17 8 17.5156 8 18.125V21.875C8 22.5312 8.46875 23 9.125 23H13.1094C13.25 23 13.4375 23.0938 13.5781 23.1875L20 28.9062V23.8438L21.5 25.0156V29.1406C21.5 29.8906 20.8438 30.5 20.0938 30.5C19.7188 30.5 19.3906 30.4062 19.1562 30.1719L19.6719 29.6094L19.1562 30.1719L12.7812 24.5H9.125C7.67188 24.5 6.5 23.3281 6.5 21.875V18.125C6.5 16.7188 7.67188 15.5 9.125 15.5H9.45312L11.3281 17H9.125Z" fill="white"/>
</svg>

