<svg width="40" height="39" viewBox="0 0 40 39" fill="none" xmlns="http://www.w3.org/2000/svg">
<path d="M20.5 11.1406L14.0781 16.8125C13.9375 16.9531 13.75 17 13.6094 17H9.625C8.96875 17 8.5 17.5156 8.5 18.125V21.875C8.5 22.5312 8.96875 23 9.625 23H13.6094C13.75 23 13.9375 23.0938 14.0781 23.1875L20.5 28.9062V11.1406ZM19.6562 9.875C19.8906 9.64062 20.2188 9.5 20.5938 9.5C21.3438 9.5 22 10.1562 22 10.9062V29.1406C22 29.8906 21.3438 30.5 20.5938 30.5C20.2188 30.5 19.8906 30.4062 19.6562 30.1719L20.1719 29.6094L19.6562 30.1719L13.2812 24.5H9.625C8.17188 24.5 7 23.3281 7 21.875V18.125C7 16.7188 8.17188 15.5 9.625 15.5H13.2812L19.6562 9.875Z" fill="white"/>
</svg>

