<svg width="31" height="28" viewBox="0 0 31 28" fill="none" xmlns="http://www.w3.org/2000/svg">
<path d="M24.3125 5.26562L16.4844 14.5L24.3125 23.7812C24.5938 24.1094 24.5469 24.5781 24.2188 24.8594C23.8906 25.0938 23.4219 25.0469 23.1406 24.7656L15.5 15.6719L7.8125 24.7656C7.53125 25.0938 7.0625 25.1406 6.73438 24.8594C6.40625 24.5781 6.40625 24.1094 6.64062 23.7812L14.5156 14.5L6.64062 5.26562C6.40625 4.9375 6.45312 4.46875 6.73438 4.1875C7.0625 3.95312 7.53125 3.95312 7.8125 4.28125L15.5 13.375L23.1406 4.28125C23.4219 3.95312 23.8906 3.95312 24.2188 4.1875C24.5469 4.46875 24.5469 4.9375 24.3125 5.26562Z" fill="#FF0066"/>
</svg>
