<svg width="31" height="27" viewBox="0 0 31 27" fill="none" xmlns="http://www.w3.org/2000/svg">
<path d="M6.5 6.5C5.65625 6.5 5 7.20312 5 8V9.875L14.1406 16.625C14.9375 17.1875 16.0156 17.1875 16.8125 16.625L26 9.875V8C26 7.20312 25.2969 6.5 24.5 6.5H6.5ZM5 11.75V20C5 20.8438 5.65625 21.5 6.5 21.5H24.5C25.2969 21.5 26 20.8438 26 20V11.75L17.7031 17.8438C16.3906 18.7812 14.5625 18.7812 13.25 17.8438L5 11.75ZM3.5 8C3.5 6.35938 4.8125 5 6.5 5H24.5C26.1406 5 27.5 6.35938 27.5 8V20C27.5 21.6875 26.1406 23 24.5 23H6.5C4.8125 23 3.5 21.6875 3.5 20V8Z" fill="black"/>
</svg>
